<?xml version="1.0" standalone="no"?>
<!DOCTYPE svg PUBLIC "-//W3C//DTD SVG 20010904//EN"
 "http://www.w3.org/TR/2001/REC-SVG-20010904/DTD/svg10.dtd">
<svg version="1.0" xmlns="http://www.w3.org/2000/svg"
 width="512.000000pt" height="512.000000pt" viewBox="0 0 512.000000 512.000000"
 preserveAspectRatio="xMidYMid meet">
<metadata>
Created by potrace 1.14, written by Peter Selinger 2001-2017
</metadata>
<g transform="translate(0.000000,512.000000) scale(0.100000,-0.100000)"
fill="#000000" stroke="none">
<path d="M2758 4634 c-213 -28 -379 -82 -568 -185 -90 -50 -213 -163 -284
-262 -46 -64 -115 -192 -116 -213 0 -6 -17 -19 -37 -30 -152 -79 -290 -180
-422 -311 l-114 -112 -46 21 c-263 120 -558 60 -754 -152 -263 -285 -222 -729
89 -966 51 -39 157 -90 214 -104 86 -19 83 -16 96 -131 46 -398 220 -761 501
-1044 111 -111 131 -128 289 -238 53 -37 309 -167 329 -167 6 0 27 -15 46 -34
103 -96 273 -191 380 -211 19 -3 50 -9 69 -13 65 -13 252 -6 320 11 140 37
251 94 357 184 39 33 95 67 144 88 457 196 810 579 973 1056 34 101 62 213 72
294 3 22 9 67 12 99 8 66 8 66 102 92 154 43 304 162 384 307 156 281 86 626
-169 833 -175 143 -438 179 -651 89 l-60 -26 -125 123 c-145 143 -262 229
-427 314 l-119 61 61 35 c54 30 101 54 247 122 74 34 100 93 69 151 -15 29
-132 88 -210 106 -51 11 -230 15 -275 5 -83 -18 -161 -39 -224 -61 -41 -14
-77 -25 -79 -25 -6 0 114 110 139 128 64 45 55 149 -16 172 -35 12 -70 11
-197 -6z m-153 -263 c-98 -136 -118 -275 -48 -330 39 -32 77 -26 163 24 171
98 329 155 480 171 30 4 53 4 50 1 -3 -3 -34 -22 -70 -42 -177 -101 -250 -163
-250 -214 0 -58 26 -79 155 -124 377 -131 703 -423 877 -787 93 -194 128 -311
151 -505 70 -590 -193 -1152 -700 -1494 -64 -43 -71 -42 -53 4 12 31 19 70 29
145 7 61 7 78 -3 195 l-7 80 66 23 c151 52 307 176 398 315 29 45 58 94 65
110 7 15 16 37 22 50 58 133 72 353 31 506 -64 244 -227 442 -451 549 -206 98
-456 105 -668 19 -60 -25 -168 -85 -195 -110 -7 -7 -29 -27 -49 -45 -35 -33
-37 -34 -55 -15 -105 104 -267 188 -423 217 -71 14 -241 14 -309 1 -194 -38
-383 -156 -503 -314 -234 -309 -227 -726 16 -1033 86 -108 233 -211 369 -257
45 -16 52 -21 49 -42 -9 -71 -10 -270 -1 -309 6 -25 12 -53 14 -63 2 -10 7
-27 10 -38 8 -25 3 -24 -48 8 -162 101 -326 262 -451 441 -105 150 -211 403
-240 572 -3 19 -8 46 -11 60 -7 35 -19 186 -19 240 2 408 161 798 440 1086
136 140 277 243 455 333 49 24 59 38 84 114 53 160 200 313 390 407 76 38 207
86 272 99 2 1 -13 -21 -32 -48z m-1560 -986 c28 -9 51 -19 53 -20 2 -2 -19
-41 -47 -88 -116 -193 -197 -416 -227 -630 -3 -21 -7 -46 -9 -55 -2 -9 -4 -34
-4 -56 -1 -37 -2 -38 -31 -32 -149 29 -304 193 -335 351 -47 243 97 473 338
540 66 19 194 14 262 -10z m3318 -16 c329 -110 429 -519 186 -762 -59 -59
-196 -134 -223 -124 -8 3 -16 36 -20 88 -9 105 -39 249 -78 364 -30 91 -125
295 -173 373 -22 36 -24 43 -11 48 104 40 224 45 319 13z m-2218 -460 c115
-34 182 -76 277 -171 48 -47 96 -92 108 -98 38 -20 77 -2 131 61 137 157 327
242 523 232 336 -15 606 -294 608 -627 1 -113 -16 -186 -67 -292 -63 -130
-159 -226 -287 -288 -54 -25 -123 -49 -162 -57 -116 -20 -141 -63 -106 -175
31 -96 36 -245 11 -339 -33 -128 -78 -210 -167 -299 -50 -51 -173 -136 -196
-136 -8 0 -18 -4 -23 -8 -10 -9 -77 -30 -125 -39 -52 -11 -207 -4 -265 11
-351 92 -557 456 -456 801 27 89 26 108 -1 140 -18 19 -46 31 -119 49 -52 13
-118 35 -146 49 -311 158 -440 535 -289 849 88 184 263 317 462 351 101 18
200 13 289 -14z"/>
<path d="M1888 2634 c-175 -45 -277 -241 -232 -447 18 -86 88 -179 165 -222
47 -26 64 -30 134 -30 63 0 89 5 120 22 150 81 223 269 171 445 -49 168 -207
271 -358 232z m113 -201 c63 -37 88 -156 50 -231 -36 -71 -81 -93 -135 -67
-67 32 -100 160 -62 234 40 76 90 98 147 64z"/>
<path d="M3095 2632 c-89 -25 -151 -82 -199 -182 -28 -59 -31 -74 -31 -165 0
-93 2 -105 33 -167 101 -205 318 -250 473 -98 77 77 103 143 103 270 0 81 -4
103 -26 151 -45 99 -135 179 -218 194 -67 12 -86 12 -135 -3z m133 -207 c34
-29 63 -113 57 -164 -8 -55 -38 -104 -78 -126 l-37 -20 -37 20 c-96 51 -106
224 -18 293 36 29 77 28 113 -3z"/>
<path d="M2220 1337 c-70 -35 -62 -154 17 -243 31 -34 105 -80 163 -100 76
-26 243 -26 320 -1 74 24 150 77 189 133 25 35 34 59 38 104 5 56 4 61 -25 89
-42 42 -92 43 -133 2 -16 -17 -29 -40 -29 -54 0 -57 -112 -109 -219 -102 -102
7 -181 54 -181 107 0 11 -13 33 -29 49 -32 32 -69 37 -111 16z"/>
</g>
</svg>
